<svg viewBox="1 -62 511.99896 511" xmlns="http://www.w3.org/2000/svg"><path d="m274.722656 85.96875c4.140625 0 7.5-3.355469 7.5-7.5v-12.445312c0-4.144532-3.359375-7.5-7.5-7.5s-7.5 3.355468-7.5 7.5v12.445312c0 4.144531 3.359375 7.5 7.5 7.5zm0 0"/><path d="m113.441406 58.523438c-4.144531 0-7.5 3.359374-7.5 7.5v12.449218c0 4.140625 3.355469 7.496094 7.5 7.496094 4.140625 0 7.496094-3.355469 7.496094-7.496094v-12.449218c0-4.140626-3.355469-7.5-7.496094-7.5zm0 0"/><path d="m166.574219 84.398438c8.097656 6.28125 17.800781 9.421874 27.507812 9.421874 9.703125 0 19.410157-3.140624 27.507813-9.421874 3.273437-2.539063 3.867187-7.246094 1.328125-10.519532-2.539063-3.273437-7.25-3.867187-10.519531-1.332031-10.785157 8.367187-25.847657 8.367187-36.632813 0-3.273437-2.535156-7.984375-1.941406-10.519531 1.332031-2.539063 3.273438-1.945313 7.980469 1.328125 10.519532zm0 0"/><path d="m471.132812 124.820312h-24.433593c-4.140625 0-7.5 3.355469-7.5 7.496094 0 4.144532 3.359375 7.5 7.5 7.5h24.433593c14.265626 0 25.871094 11.605469 25.871094 25.871094v181.519531c0 14.265625-11.605468 25.871094-25.871094 25.871094h-181.519531c-14.265625 0-25.871093-11.605469-25.871093-25.871094v-181.515625c0-14.265625 11.605468-25.871094 25.871093-25.871094l127.800781-.003906c4.140626 0 7.5-3.355468 7.5-7.5 0-4.140625-3.359374-7.496094-7.5-7.496094h-38.605468c5.78125-7.050781 9.257812-16.0625 9.257812-25.867187v-57.585937c0-22.535157-18.335937-40.867188-40.871094-40.867188h-306.230468c-22.535156 0-40.8671878 18.332031-40.8671878 40.867188v57.585937c0 13.746094 6.8281248 25.917969 17.2656248 33.328125-10.492187 7.402344-17.363281 19.601562-17.363281 33.378906v181.769532c0 22.519531 18.332031 40.839843 40.867188 40.839843h181.910156c13.84375 0 26.09375-6.921875 33.488281-17.480469 7.410156 10.449219 19.589844 17.285157 33.34375 17.285157h181.523437c22.53125 0 40.867188-18.332031 40.867188-40.867188v-181.519531c0-22.535156-18.332031-40.867188-40.867188-40.867188zm-222.488281 222.609376c0 14.25-11.601562 25.84375-25.867187 25.84375h-181.910156c-14.265626 0-25.871094-11.59375-25.871094-25.84375v-181.769532c0-14.242187 11.597656-25.832031 25.851562-25.84375.039063 0 .078125.003906.117188.003906h57.585937c14.265625 0 25.871094 11.605469 25.871094 25.871094 0 0-1.042969 10.117188 7.496094 10.117188 8.542969 0 7.5-10.117188 7.5-10.117188 0-22.535156-18.332031-40.867187-40.867188-40.867187h-57.585937c-.03125 0-.066406-.003907-.097656-.003907-.007813 0-.011719 0-.019532 0-14.210937-.0625-25.753906-11.640624-25.753906-25.867187v-57.585937c0-14.265626 11.605469-25.871094 25.871094-25.871094h306.230468c14.265626 0 25.871094 11.605468 25.871094 25.871094v57.585937c0 14.21875-11.53125 25.792969-25.734375 25.867187h-57.71875c-22.535156 0-40.867187 18.332032-40.867187 40.867188v82.679688h-83.457032c-14.265624 0-25.871093-11.601563-25.871093-25.867188v-23.164062c0-4.140626-3.355469-7.5-7.5-7.5-4.140625 0-7.496094 3.359374-7.496094 7.5v23.164062c0 22.535156 18.332031 40.867188 40.867187 40.867188h83.457032v83.839843c0 .074219.003906.148438.003906.222657zm0 0"/></svg>