<?xml version="1.0" encoding="iso-8859-1"?>
<!-- Generator: Adobe Illustrator 19.0.0, SVG Export Plug-In . SVG Version: 6.00 Build 0)  -->
<svg version="1.1" id="Capa_1" xmlns="http://www.w3.org/2000/svg" xmlns:xlink="http://www.w3.org/1999/xlink" x="0px" y="0px"
	 viewBox="0 0 512 512" style="enable-background:new 0 0 512 512;" xml:space="preserve">
<path style="fill:#80A6EE;" d="M344.172,419.319V92.681c0-22.134-17.944-40.078-40.078-40.078s-40.078,17.944-40.078,40.078H47.593
	v326.638c0,22.134,17.944,40.078,40.078,40.078H384.25C362.116,459.397,344.172,441.453,344.172,419.319z"/>
<path style="fill:#D5E1F9;" d="M424.329,259.006c0-22.134,17.944-40.078,40.078-40.078H344.172v200.391
	c0,22.134,17.944,40.078,40.078,40.078s40.078-17.944,40.078-40.078V259.006z"/>
<path style="fill:#80A6EE;" d="M464.407,218.928c-22.134,0-40.078,17.944-40.078,40.078v40.078h80.157v-40.078
	C504.485,236.872,486.541,218.928,464.407,218.928z"/>
<path style="fill:#D5E1F9;" d="M304.094,52.603H47.593c-22.134,0-40.078,17.944-40.078,40.078v32.063h256.501V92.681
	C264.016,70.547,281.96,52.603,304.094,52.603z"/>
<circle style="fill:#FDE8CF;" cx="191.875" cy="194.881" r="40.078"/>
<path style="fill:#EEEBEA;" d="M247.984,350.184H135.765v-75.147c0-8.854,7.177-16.031,16.031-16.031h80.157
	c8.854,0,16.031,7.177,16.031,16.031V350.184z"/>
<path style="fill:#626178;" d="M191.875,154.802c-48.094,0-56.11,40.078-56.11,40.078h96.188
	C231.953,172.746,214.009,154.802,191.875,154.802z"/>
<path d="M464.407,211.413h-112.72V92.681c0-26.242-21.351-47.593-47.593-47.593H47.593C21.351,45.088,0,66.439,0,92.681v32.063
	c0,4.15,3.365,7.515,7.515,7.515h32.564v206.904c0,4.15,3.365,7.515,7.515,7.515s7.515-3.365,7.515-7.515V132.258h208.908
	c4.151,0,7.515-3.365,7.515-7.515V92.681c0-17.955,14.608-32.564,32.564-32.564s32.564,14.609,32.564,32.564v326.638
	c0,12.585,4.91,24.044,12.915,32.564H87.671c-17.955,0-32.564-14.609-32.564-32.564v-43.752c0-4.15-3.365-7.515-7.515-7.515
	s-7.515,3.365-7.515,7.515v43.752c0,26.242,21.351,47.593,47.593,47.593H384.25c26.242,0,47.593-21.351,47.593-47.593v-112.72
	h72.642c4.151,0,7.515-3.365,7.515-7.515v-40.078C512,232.764,490.649,211.413,464.407,211.413z M256.501,92.681v24.548H15.029
	V92.681c0-17.955,14.609-32.564,32.564-32.564h221.823C261.411,68.637,256.501,80.096,256.501,92.681z M416.814,419.319
	c0,17.955-14.608,32.564-32.564,32.564s-32.564-14.609-32.564-32.564V226.442h78.042c-8.006,8.52-12.915,19.979-12.915,32.564
	V419.319z M496.971,291.569h-65.127v-32.564c0-17.955,14.608-32.564,32.564-32.564s32.564,14.609,32.564,32.564V291.569z"/>
<path d="M247.984,379.742H135.765c-4.15,0-7.515,3.365-7.515,7.515c0,4.15,3.365,7.515,7.515,7.515h112.219
	c4.15,0,7.515-3.365,7.515-7.515C255.499,383.106,252.135,379.742,247.984,379.742z"/>
<path d="M247.984,411.804H135.765c-4.15,0-7.515,3.365-7.515,7.515c0,4.15,3.365,7.515,7.515,7.515h112.219
	c4.15,0,7.515-3.365,7.515-7.515C255.499,415.169,252.135,411.804,247.984,411.804z"/>
<path d="M128.25,350.184c0,4.15,3.365,7.515,7.515,7.515h112.219c4.15,0,7.515-3.365,7.515-7.515v-23.045
	c0-4.15-3.365-7.515-7.515-7.515s-7.515,3.365-7.515,7.515v15.53h-41.08v-49.096l20.29-27.053h12.274
	c4.696,0,8.517,3.82,8.517,8.517v17.033c0,4.15,3.365,7.515,7.515,7.515s7.515-3.365,7.515-7.515v-17.033
	c0-12.983-10.563-23.546-23.546-23.546h-80.157c-12.983,0-23.546,10.563-23.546,23.546V350.184z M191.875,278.544l-9.018-12.023
	h18.035L191.875,278.544z M143.28,275.037c0-4.696,3.82-8.517,8.517-8.517h12.274l20.29,27.053v49.096h-41.08V275.037z"/>
<path d="M135.765,202.395h9.116c3.614,22.684,23.309,40.078,46.994,40.078c26.242,0,47.593-21.351,47.593-47.593
	s-21.351-47.593-47.593-47.593c-27.828,0-43.615,12.431-51.957,22.86c-9.054,11.317-11.424,22.777-11.52,23.259
	C127.481,197.988,131.098,202.395,135.765,202.395z M191.875,227.444c-15.369,0-28.276-10.706-31.679-25.049h63.358
	C220.151,216.738,207.244,227.444,191.875,227.444z M191.875,162.317c15.37,0,28.287,10.704,31.688,25.049h-77.016
	C151.736,177.257,164.106,162.317,191.875,162.317z"/>
<g>
</g>
<g>
</g>
<g>
</g>
<g>
</g>
<g>
</g>
<g>
</g>
<g>
</g>
<g>
</g>
<g>
</g>
<g>
</g>
<g>
</g>
<g>
</g>
<g>
</g>
<g>
</g>
<g>
</g>
</svg>
