<svg id="Capa_1" enable-background="new 0 0 512 512" height="512" viewBox="0 0 512 512" width="512" xmlns="http://www.w3.org/2000/svg"><g><g><path d="m447.25 192.25c0 105.506-85.744 191.25-191.25 191.25v25.404c0 6.827-3.993 13.024-10.21 15.845s-13.51 1.746-18.648-2.75l-83.676-73.217c-3.776-3.304-5.942-8.077-5.942-13.095s2.166-9.791 5.942-13.095l93.416-81.739c3.404-2.979 8.236-3.691 12.355-1.822s6.763 5.975 6.763 10.498c0 6.827 3.993 13.024 10.21 15.845s13.51 1.746 18.648-2.75l83.677-73.217c3.776-3.304 5.942-8.077 5.942-13.095s-2.166-9.791-5.942-13.095l-83.677-73.217c-5.138-4.496-12.431-5.571-18.648-2.75s-10.21 9.018-10.21 15.845v25.405c-105.506 0-191.25 85.744-191.25 191.25s85.744 192.25 191.25 192.25c-140.887 0-256-115.113-256-256 0-140.889 115.113-256 256-256 6.694 0 13.068.319 19.443.955 96.582 9.881 171.807 92.481 171.807 191.295z" fill="#8cd96b"/><path d="m275.444.954c96.581 9.882 171.806 92.481 171.806 191.296 0 105.505-58.745 216.75-164.25 216.75l-27-.096c0 6.827-3.993 13.024-10.21 15.845s-13.51 1.746-18.648-2.75l-83.676-73.217c-3.776-3.304-5.942-8.077-5.942-13.095s2.166-9.791 5.942-13.095l93.416-81.739c3.404-2.979 8.236-3.691 12.355-1.822s6.763 5.975 6.763 10.498c0 6.827 7.783 4.649 14 7.471 6.217 2.821 6.862-5.504 12-10l74-60c3.776-3.304 1-5.982 1-11s-2.224-6.696-6-10l-68-49c-5.138-4.496-.783-16.821-7-14s-7 1.173-7 8l-13 17.5c-105.505 0-191.25 85.743-191.25 191.25 0 105.505 85.745 192.25 191.25 192.25 140.887 0 256-115.113 256-256 0-134.194-104.594-245.482-236.556-255.046z" fill="#c6f243"/></g><g fill="#8cd96b"><path d="m512 256c0-134.194-104.594-245.482-236.556-255.046 96.581 9.882 171.806 92.481 171.806 191.296 0 105.505-85.745 191.25-191.25 191.25v25.404 103.096c140.887 0 256-115.113 256-256z"/><path d="m266.21 265.373c6.216 2.822 13.51 1.747 18.647-2.75l83.677-73.217c3.776-3.303 5.942-8.077 5.942-13.094s-2.166-9.791-5.942-13.096l-83.677-73.216c-5.138-4.495-12.431-5.572-18.647-2.75s-10.21 9.018-10.21 15.846v25.404 121.029c0 6.828 3.994 13.024 10.21 15.844z"/></g><path d="m266.21 87.25c6.216-2.822 13.51-1.745 18.647 2.75l83.677 73.217c3.776 3.305 5.942 8.079 5.942 13.096s-2.166 9.791-5.942 13.094l-83.677 73.217c-5.138 4.497-12.431 5.572-18.647 2.75-6.216-2.82-10.21-9.016-10.21-15.844v133.97c105.505 0 191.25-85.745 191.25-191.25 0-98.815-75.225-181.414-171.806-191.296-6.376-.635-12.75-.954-19.444-.954v103.096c0-6.828 3.994-13.024 10.21-15.846z" fill="#5ab267"/></g></svg>