<?xml version="1.0" encoding="iso-8859-1"?>
<!-- Generator: Adobe Illustrator 19.0.0, SVG Export Plug-In . SVG Version: 6.00 Build 0)  -->
<svg version="1.1" id="Capa_1" xmlns="http://www.w3.org/2000/svg" xmlns:xlink="http://www.w3.org/1999/xlink" x="0px" y="0px"
	 viewBox="0 0 501.9 501.9" style="enable-background:new 0 0 501.9 501.9;" xml:space="preserve">
<polygon style="fill:#FDC75B;" points="413.901,87.5 344.901,172.1 413.901,256.7 152.101,256.7 152.101,245.4 152.101,232.7 
	152.101,87.5 "/>
<g>
	<path style="fill:#ED664C;" d="M152.101,450.7h44c11.1,0,20,9,20,20v21h-128v-21c0-11,9-20,20-20H152.101z"/>
	<path style="fill:#ED664C;" d="M152.101,58.1h-0.1c-13.3,0-24-10.8-24-24c0-13.3,10.7-24,24-24c13.2,0,24,10.7,24,24
		C176.001,47.3,165.301,58,152.101,58.1z"/>
</g>
<path d="M88.101,501.9h128c5.5,0,9.9-4.6,9.9-10.2v-21c0-16.5-13.3-29.8-29.9-29.8h-34.1v-174h251.9c3.9,0,7.4-2.3,9-5.8
	c1.7-3.5,1.2-7.7-1.3-10.7l-63.9-78.3l63.9-78.3c2.4-3,2.9-6.9,1.3-10.4s-5.2-5.5-9-5.5h-251.9V66.5c14-4.3,23.9-17.3,23.9-32.5
	c0-18.7-15.2-34-34-34s-34,15.3-34,34c0,15.3,10.1,28.3,24.1,32.5v166.1v12.7v195.6h-33.9c-16.5,0-30.1,13.3-30.1,29.8v21
	C78.001,497.3,82.601,501.9,88.101,501.9z M138.001,34c0-7.7,6.3-14,14-14s14,6.2,14,13.9s-6.2,13.9-13.9,13.9h-0.1
	C144.301,47.9,138.001,41.7,138.001,34z M162.001,232.7V97.9h230.8l-55.7,68.1c-3,3.7-3,9,0,12.6l55.7,68.3h-230.8v-1.5V232.7z
	 M98.001,470.7c0-5.5,4.6-9.8,10.1-9.8h88c5.5,0,9.9,4.3,9.9,9.8v11.2h-108V470.7z"/>
<g>
</g>
<g>
</g>
<g>
</g>
<g>
</g>
<g>
</g>
<g>
</g>
<g>
</g>
<g>
</g>
<g>
</g>
<g>
</g>
<g>
</g>
<g>
</g>
<g>
</g>
<g>
</g>
<g>
</g>
</svg>
