<svg id="Capa_1" enable-background="new 0 0 512 512" height="512" viewBox="0 0 512 512" width="512" xmlns="http://www.w3.org/2000/svg" xmlns:xlink="http://www.w3.org/1999/xlink"><linearGradient id="lg1"><stop offset="0" stop-color="#0056e0"/><stop offset="1" stop-color="#fc54ff"/></linearGradient><linearGradient id="SVGID_1_" gradientUnits="userSpaceOnUse" x1="74.981" x2="437.02" xlink:href="#lg1" y1="437.019" y2="74.98"/><radialGradient id="SVGID_2_" cx="256.001" cy="256" gradientUnits="userSpaceOnUse" r="258.6"><stop offset=".0053" stop-color="#8d00db" stop-opacity=".66"/><stop offset="1" stop-color="#fc54ff" stop-opacity="0"/></radialGradient><linearGradient id="lg2"><stop offset="0" stop-color="#fda0ff"/><stop offset=".3772" stop-color="#fec1ff"/><stop offset="1" stop-color="#fff"/></linearGradient><linearGradient id="SVGID_3_" gradientUnits="userSpaceOnUse" x1="-324.762" x2="406.553" xlink:href="#lg2" y1="836.763" y2="105.448"/><linearGradient id="SVGID_4_" gradientUnits="userSpaceOnUse" x1="-46.076" x2="439.973" y1="558.076" y2="72.027"><stop offset="0" stop-color="#d3ff33"/><stop offset="1" stop-color="#fff"/></linearGradient><linearGradient id="SVGID_5_" gradientTransform="matrix(0 1 -1 0 -1761.581 -3260.417)" gradientUnits="userSpaceOnUse" x1="3818.492" x2="3332.443" xlink:href="#lg1" y1="-1715.505" y2="-2201.555"/><linearGradient id="SVGID_6_" gradientUnits="userSpaceOnUse" x1="90.844" x2="404.326" xlink:href="#lg1" y1="423.217" y2="109.735"/><linearGradient id="SVGID_7_" gradientUnits="userSpaceOnUse" x1="-33.247" x2="362.871" xlink:href="#lg2" y1="545.247" y2="149.13"/><linearGradient id="SVGID_8_" gradientUnits="userSpaceOnUse" x1="-63.77" x2="332.253" xlink:href="#lg2" y1="610.084" y2="214.061"/><g><circle cx="256" cy="256" fill="url(#SVGID_1_)" r="256"/><circle cx="256" cy="256" fill="url(#SVGID_2_)" r="256"/><path d="m401.15 110.308c-70.326-70.748-176.536-70.613-246.732.274-56.838 56.739-68.848 137.021-32.933 202.871 3.904 7.27 4.712 15.692 2.325 23.305-5.313 16.939-10.466 33.794-15.422 50.557-1.089 3.684-.463 7.863 1.95 11.193 3.36 4.63 9.063 6.671 14.021 5.202 16.87-4.986 33.836-10.171 50.885-15.519 7.613-2.385 16.036-1.583 23.302 2.323 65.852 35.921 146.134 23.904 202.876-32.933 71.052-70.352 70.95-177.018-.272-247.273z" fill="url(#SVGID_3_)"/><path d="m277.92 88.018c-78.754.279-145.785 67.309-146.063 146.062.279 78.754 67.31 145.785 146.063 146.062 78.753-.279 145.784-67.31 146.062-146.062-.277-78.754-67.308-145.785-146.062-146.062z" fill="url(#SVGID_4_)"/><path d="m423.983 234.08c-.278-78.754-67.309-145.785-146.062-146.062-78.754.279-145.785 67.309-146.063 146.062.279 78.754 67.31 145.785 146.063 146.062 78.752-.279 145.783-67.309 146.062-146.062z" fill="url(#SVGID_5_)"/><path d="m293.136 349.372c-79.369-.011-146.136-66.548-145.807-145.633.108-17.107 3.336-33.543 9.09-48.879-15.415 22.988-24.569 50.125-24.561 79.22.279 78.754 67.31 145.785 146.063 146.062 62.006-.025 116.2-41.8 137.226-97.388-26.579 39.355-71.581 66.484-122.011 66.618z" fill="url(#SVGID_6_)"/><path d="m290.729 216.145c-.009-25.317-.037-50.635-.085-75.953-.019-7.62-9.828-10.614-14.001-4.255-22.809 34.721-45.981 69.559-68.933 104.127-3.379 5.084.298 11.887 6.425 11.896 16.992.03 33.983.049 50.975.055.009 25.318.037 50.635.085 75.953.019 7.623 9.828 10.615 14 4.255 16.583-25.244 33.358-50.549 50.1-75.767-12.831-13.402-25.703-26.855-38.566-40.311z" fill="url(#SVGID_7_)"/><path d="m341.704 216.199c-16.992-.03-33.983-.048-50.975-.054.01 21.721 17.097 39.406 38.567 40.312 6.286-9.467 12.568-18.924 18.833-28.36 3.379-5.088-.298-11.884-6.425-11.898z" fill="url(#SVGID_8_)"/></g></svg>