<svg id="Capa_1" enable-background="new 0 0 511.998 511.998" height="512" viewBox="0 0 511.998 511.998" width="512" xmlns="http://www.w3.org/2000/svg"><g><path d="m165.181 503.517-148.55-57.915c-7.377-2.876-11.026-11.188-8.15-18.565l108.721-278.864c2.876-7.377 11.188-11.026 18.565-8.15l148.55 57.915c7.377 2.876 11.026 11.188 8.15 18.565l-108.721 278.864c-2.876 7.377-11.188 11.026-18.565 8.15z" fill="#ffe07d"/><path d="m284.317 197.938-45.683-17.81-5.094 7.101c-3.461 4.825-4.648 10.919-3.25 16.691l10.282 42.46c3.204 13.232 2.271 27.129-2.675 39.814l-83.143 213.259 10.426 4.065c7.377 2.876 15.689-.773 18.565-8.15l72.247-185.31 36.474-93.554c2.877-7.378-.772-15.69-8.149-18.566z" fill="#ffd064"/><path d="m488.895 469.25-143.177 34.672c-10.95 2.652-21.976-4.075-24.627-15.025l-70.191-289.851c-1.398-5.772-.211-11.866 3.25-16.691l57.15-79.676c5.921-8.255 17.013-10.895 26.018-6.193l86.004 44.909c5.214 2.723 9 7.564 10.384 13.281l70.214 289.945c2.652 10.951-4.075 21.977-15.025 24.629z" fill="#e28086"/><path d="m503.92 444.622-70.214-289.945c-1.384-5.717-5.17-10.558-10.384-13.281l-86.004-44.909c-9.005-4.702-20.097-2.062-26.018 6.193l-3.175 4.427c1.273.371 2.528.861 3.744 1.496l86.004 44.909c5.214 2.723 8.999 7.564 10.384 13.281l70.214 289.945c1.35 5.573.26 11.16-2.57 15.659l12.995-3.147c10.949-2.652 17.676-13.678 15.024-24.628z" fill="#dd636e"/><g><path d="m104.926 369.159c1.456 1.41 3.336 2.111 5.215 2.111 1.961 0 3.919-.764 5.39-2.284l82.911-85.659c2.881-2.976 2.804-7.724-.173-10.604-2.977-2.883-7.726-2.804-10.604.173l-82.911 85.659c-2.881 2.975-2.804 7.723.172 10.604z"/><path d="m123.771 304.498c2.986 1.165 6.103 1.743 9.242 1.743 4.366 0 8.779-1.119 12.951-3.336 6.797-3.612 12.165-9.769 15.114-17.335 6.247-16.021-.325-33.601-14.651-39.187-14.323-5.582-31.062 2.908-37.307 18.929-2.95 7.567-3.166 15.732-.607 22.992 2.7 7.66 8.119 13.411 15.258 16.194zm-.676-33.736c2.638-6.764 8.437-11.112 14.07-11.112 1.293 0 2.578.229 3.813.71 6.619 2.581 9.366 11.446 6.125 19.762-1.646 4.224-4.552 7.61-8.179 9.539-3.254 1.729-6.699 2.036-9.706.862-3.005-1.171-5.335-3.729-6.56-7.204-1.363-3.875-1.209-8.335.437-12.557z"/><path d="m177.177 339.041c-7.141-2.785-15.022-2.219-22.193 1.593-6.797 3.612-12.164 9.769-15.114 17.335-6.247 16.021.325 33.601 14.65 39.186 2.987 1.165 6.078 1.717 9.157 1.717 11.69 0 23.207-7.964 28.15-20.645 2.95-7.567 3.166-15.732.607-22.992-2.698-7.66-8.117-13.411-15.257-16.194zm.676 33.736c-3.243 8.316-11.265 12.982-17.884 10.402-6.619-2.581-9.366-11.446-6.125-19.762 1.646-4.224 4.552-7.611 8.179-9.539 1.954-1.038 3.978-1.563 5.934-1.563 1.301 0 2.571.232 3.771.7 3.006 1.172 5.336 3.73 6.56 7.205 1.366 3.876 1.211 8.335-.435 12.557z"/><path d="m381.235 265.839-18.965 117.694c-.659 4.09 2.122 7.938 6.211 8.598.404.065.806.097 1.202.097 3.617 0 6.802-2.622 7.396-6.308l18.965-117.694c.659-4.09-2.122-7.938-6.211-8.598-4.095-.67-7.94 2.122-8.598 6.211z"/><path d="m366.688 291.447c-1.911-7.894-6.407-14.712-12.66-19.201-6.596-4.734-14.331-6.35-21.779-4.546-14.943 3.618-23.809 20.159-19.762 36.874 1.911 7.893 6.407 14.712 12.66 19.2 4.837 3.473 10.284 5.267 15.782 5.267 2.002 0 4.011-.238 5.998-.72 7.448-1.804 13.588-6.778 17.288-14.008 3.506-6.851 4.385-14.972 2.473-22.866zm-15.826 16.033c-1.678 3.279-4.329 5.503-7.465 6.263-3.133.76-6.511-.005-9.502-2.154-3.338-2.396-5.763-6.141-6.83-10.545-2.1-8.676 1.809-17.094 8.714-18.766.79-.191 1.596-.286 2.406-.286 2.406 0 4.857.833 7.096 2.439 3.337 2.396 5.762 6.141 6.829 10.547 1.066 4.406.623 8.845-1.248 12.502z"/><path d="m390.731 362.956c3.514 14.512 15.623 24.455 28.535 24.454 1.959 0 3.938-.229 5.906-.706 14.943-3.619 23.808-20.161 19.76-36.874-4.047-16.712-19.496-27.368-34.44-23.748-7.448 1.804-13.588 6.778-17.288 14.008-3.506 6.851-4.385 14.972-2.473 22.866zm15.826-16.033c1.678-3.279 4.329-5.503 7.464-6.263.812-.196 1.629-.291 2.444-.291 6.111 0 12.035 5.337 13.889 12.992 2.101 8.674-1.808 17.092-8.712 18.765-6.902 1.663-14.232-4.024-16.333-12.701-1.066-4.405-.623-8.845 1.248-12.502z"/><path d="m511.21 442.856-70.214-289.945c-1.895-7.82-7.07-14.44-14.202-18.164l-14.613-7.631c-3.673-1.916-8.201-.495-10.12 3.177-1.917 3.672-.495 8.202 3.177 10.12l14.614 7.631c3.297 1.722 5.69 4.782 6.566 8.398l70.214 289.944c1.674 6.914-2.589 13.9-9.502 15.574l-143.176 34.672c-6.919 1.673-13.899-2.589-15.574-9.502l-70.191-289.85c-.885-3.654-.135-7.501 2.057-10.556l57.082-79.581c5.684 10.817 9.733 23.126 10.706 36.872l-2.371.574c-4.026.975-6.5 5.028-5.524 9.054.831 3.434 3.9 5.737 7.283 5.737.584 0 1.178-.069 1.771-.213l16.675-4.038c4.026-.975 6.5-5.028 5.524-9.054-.939-3.877-4.726-6.305-8.607-5.609-1.257-13.135-5.003-25.964-11.122-38.228.744.227 1.475.524 2.184.895l44.674 23.327c3.672 1.918 8.202.493 10.12-3.177 1.917-3.672.495-8.203-3.177-10.12l-44.674-23.325c-5.691-2.972-12.044-3.771-18.022-2.651-5.146-7.482-11.23-14.691-18.229-21.556-13.718-13.458-27.326-22.125-33.943-25.96v-32.171c0-4.143-3.357-7.5-7.5-7.5s-7.5 3.357-7.5 7.5v32.733c-28.006 20.584-48.024 54.12-57.999 97.296-1.383 5.985-2.484 11.764-3.368 17.236l-55.737-21.73c-5.436-2.12-11.369-1.995-16.71.35s-9.449 6.629-11.567 12.062l-108.721 278.865c-4.374 11.219 1.194 23.904 12.412 28.277l51.704 20.157c.896.35 1.816.515 2.723.515 3.001 0 5.834-1.813 6.989-4.777 1.505-3.859-.404-8.208-4.263-9.712l-51.704-20.157c-3.513-1.37-5.256-5.341-3.887-8.854l108.721-278.864c.664-1.701 1.95-3.043 3.622-3.776 1.673-.735 3.531-.773 5.231-.11l59.153 23.062c-.758 7.257-1.123 13.511-1.288 18.352-3.206-.246-6.329 1.604-7.556 4.754-1.505 3.859.403 8.208 4.263 9.712l7.857 3.063c.015.006.03.011.044.017l8.084 3.152c.896.35 1.816.515 2.723.515 3.001 0 5.834-1.813 6.989-4.777 1.505-3.859-.403-8.208-4.263-9.712l-3.243-1.264c.049-4.01.259-10.299.959-18.132l36.401 14.192c-.558 3.575-.428 7.265.444 10.869l18.014 74.389-84.867 217.443c-1.368 3.512-5.343 5.253-8.853 3.887l-68.906-26.865c-3.861-1.507-8.208.403-9.712 4.263-1.505 3.859.403 8.208 4.263 9.712l68.907 26.866c2.598 1.013 5.272 1.491 7.906 1.491 8.739 0 17.01-5.284 20.369-13.903l77.057-197.435 46.012 190.004c3.089 12.755 14.537 21.337 27.117 21.336 2.166 0 4.368-.255 6.565-.787l143.176-34.672c14.955-3.624 24.174-18.734 20.553-33.687zm-247.617-389.891c8.6 5.071 29.753 18.957 45.541 40.956-1.44 1.3-2.762 2.761-3.928 4.387l-55.898 77.931-40.711-15.872c4.933-33.173 18.417-79.981 54.996-107.402z"/></g></g></svg>