<svg id="Capa_1" enable-background="new 0 0 512 512" height="512" viewBox="0 0 512 512" width="512" xmlns="http://www.w3.org/2000/svg"><g><path d="m321.841 250.912 10.31 51.547-10.51 173.92-14.776 35.621h-39.223v-240.44z" fill="#617296"/><path d="m306.865 313.903h14.976l7.488 102.393-7.488 95.704h-14.976z" fill="#495a83"/><path d="m321.841 250.912.199 225.467 14.777 35.621h39.223v-240.44z" fill="#495a83"/><path d="m321.841 313.903h14.976v198.097h-14.976z" fill="#3b4469"/><g><path d="m192.791 303.752h14.961c16.569 0 30-13.431 30-30v-19.702l-19.853-8.012-25.107 8.012v49.702z" fill="#f9cfb2"/><path d="m192.791 163.237c0-39.195 31.774-70.969 70.969-70.969h58.081l24.369 120.125-24.369 59.168h-54.199v-117.397l-29.891 23.858v76.028h-44.96z" fill="#63e1ce"/></g><path d="m420.938 286.138v225.862h29.953v-208.248z" fill="#ca6d72"/><g><path d="m81.627 153.412c0 45.805 37.005 82.957 82.748 83.217l13.032-79.914-13.032-86.52c-45.743.26-82.748 37.412-82.748 83.217z" fill="#f1f1f1"/><path d="m164.857 70.183c-.161 0-.32.011-.481.012v166.434c.161.001.32.012.481.012 45.966 0 83.229-37.263 83.229-83.229s-37.263-83.229-83.229-83.229z" fill="#e2e2f1"/><path d="m164.375 224.943c-40.425 0-73.313-32.889-73.313-73.313 0-40.425 32.889-73.313 73.313-73.313l14.353-14.078-14.353-15.875c-56.942 0-103.266 46.324-103.266 103.266 0 56.941 46.324 103.266 103.266 103.266l9.068-14.291z" fill="#fee05b"/><path d="m267.642 151.63c0-56.941-46.325-103.266-103.266-103.266v29.953c40.425 0 73.314 32.889 73.314 73.313s-32.888 73.313-73.314 73.313v29.953c56.941-.001 103.266-46.325 103.266-103.266z" fill="#fec258"/><path d="m149.399 110.733v56.808l14.976 10.481 7.748-33.857-7.748-33.432z" fill="#fd676a"/><path d="m202.156 167.905-22.805-15.961v-41.211h-14.976v67.289l20.607 14.422z" fill="#e4336d"/></g><path d="m450.891 303.752h-14.961c-16.569 0-30-13.431-30-30v-19.702l19.853-8.012 25.107 8.012v49.702z" fill="#f9cfb2"/><path d="m450.891 163.237c0-39.195-31.774-70.969-70.969-70.969h-58.081v179.292h54.199v-105.7h29.891v88.191h44.96z" fill="#4fbbbf"/><path d="m278.385 43.456v17.736c0 23.903 19.447 43.35 43.35 43.35h.105l14.523-51.578-14.522-52.964c-23.962 0-43.456 19.495-43.456 43.456z" fill="#fbe2cc"/><path d="m321.841 0v104.542h.106c23.904 0 43.35-19.447 43.35-43.35v-17.736c0-23.962-19.495-43.456-43.456-43.456z" fill="#f9cfb2"/></g></svg>