<svg id="Filled" height="512" viewBox="0 0 512 512" width="512" xmlns="http://www.w3.org/2000/svg"><g><path d="m40 192h432a0 0 0 0 1 0 0v302a10 10 0 0 1 -10 10h-412a10 10 0 0 1 -10-10v-302a0 0 0 0 1 0 0z" fill="#f94267"/><path d="m40 192h432v24h-432z" fill="#d9395a"/><rect fill="#f94267" height="112" rx="10" width="496" x="8" y="80"/><g fill="#fed672"><path d="m104 8h80a72 72 0 0 1 72 72 0 0 0 0 1 0 0h-80a72 72 0 0 1 -72-72 0 0 0 0 1 0 0z"/><path d="m328 8h80a0 0 0 0 1 0 0 72 72 0 0 1 -72 72h-80a0 0 0 0 1 0 0 72 72 0 0 1 72-72z" transform="matrix(-1 0 0 -1 664 88)"/><path d="m200 80h112v112h-112z"/><path d="m168 192h176v312h-176z"/></g><path d="m168 192h176v24h-176z" fill="#fba35f"/><path d="m88 312h336v192h-336z" fill="#4ab4e6"/><path d="m216.335 384h-2.43a47.663 47.663 0 0 0 -29.143 10l-.405.313a41.534 41.534 0 0 1 -51 0l-13.357-10.313v5c0 41.421 32.619 75 72.857 75h24.286c21.823 0 39.444-18.519 38.842-41.124a39.91 39.91 0 0 0 -39.65-38.876z" fill="#fed672"/><path d="m295.666 384h2.434a47.663 47.663 0 0 1 29.143 10l.4.312a41.531 41.531 0 0 0 51 0l13.357-10.312v5c0 41.421-32.619 75-72.857 75h-24.286c-21.823 0-39.444-18.519-38.842-41.124a39.909 39.909 0 0 1 39.651-38.876z" fill="#fed672"/><path d="m494 72h-62v16h62a2 2 0 0 1 2 2v92a2 2 0 0 1 -2 2h-174v-96h96v-16h-32.051a79.931 79.931 0 0 0 32.051-64 8 8 0 0 0 -8-8h-80a80.1 80.1 0 0 0 -72 45.144 80.1 80.1 0 0 0 -72-45.144h-80a8 8 0 0 0 -8 8 79.931 79.931 0 0 0 32.051 64h-110.051a18.021 18.021 0 0 0 -18 18v92a18.021 18.021 0 0 0 18 18h14v56h16v-56h112v104h-72a8 8 0 0 0 -8 8v184h-30a2 2 0 0 1 -2-2v-222h-16v222a18.021 18.021 0 0 0 18 18h412a18.021 18.021 0 0 0 18-18v-102h-16v102a2 2 0 0 1 -2 2h-30v-184a8 8 0 0 0 -8-8h-72v-48h-16v48h-160v-104h160v40h16v-40h112v176h16v-176h14a18.021 18.021 0 0 0 18-18v-92a18.021 18.021 0 0 0 -18-18zm-229.988 351.089a32.012 32.012 0 0 1 31.654-31.089h2.434a39.92 39.92 0 0 1 24.255 8.333l.4.312a49.745 49.745 0 0 0 60.187.449c-5.528 31.191-32.033 54.906-63.799 54.906h-24.286a30.116 30.116 0 0 1 -21.712-9.264 32.341 32.341 0 0 1 -9.133-23.647zm34.088-47.089h-2.429a47.808 47.808 0 0 0 -39.671 21.543 47.808 47.808 0 0 0 -39.666-21.543h-2.429a54.983 54.983 0 0 0 -12.279 1.4l-86.979-57.4h282.71l-86.969 57.4a54.986 54.986 0 0 0 -12.288-1.4zm-108.45 24.333a39.92 39.92 0 0 1 24.255-8.333h2.429a32.012 32.012 0 0 1 31.654 31.089 32.341 32.341 0 0 1 -9.133 23.647 30.116 30.116 0 0 1 -21.712 9.264h-24.286c-31.766 0-58.271-23.715-63.8-54.906a49.748 49.748 0 0 0 60.187-.449zm-93.65 95.667v-169.136l87.872 57.989q-2.057 1.315-4 2.814l-.405.313a33.74 33.74 0 0 1 -41.222 0l-13.357-10.313a8 8 0 0 0 -12.888 6.333v5c0 45.766 36.272 83 80.857 83h24.286a45.989 45.989 0 0 0 33.175-14.1 48.4 48.4 0 0 0 5.682-7.041 48.4 48.4 0 0 0 5.682 7.039 45.989 45.989 0 0 0 33.175 14.102h24.286c44.585 0 80.857-37.234 80.857-83v-5a8 8 0 0 0 -12.889-6.333l-13.357 10.313a33.74 33.74 0 0 1 -41.222 0l-.4-.313q-1.936-1.494-3.99-2.809l87.858-57.992v169.134zm232-480h71.5a64.1 64.1 0 0 1 -63.5 56h-71.5a64.1 64.1 0 0 1 63.5-56zm-215.5 0h71.5a64.1 64.1 0 0 1 63.5 56h-71.5a64.1 64.1 0 0 1 -63.5-56zm-94.5 168a2 2 0 0 1 -2-2v-92a2 2 0 0 1 2-2h174v96zm190 0v-96h96v96z"/></g></svg>