<svg height="512" viewBox="0 0 512 512" width="512" xmlns="http://www.w3.org/2000/svg" xmlns:xlink="http://www.w3.org/1999/xlink"><linearGradient id="New_Gradient_Swatch_9" gradientUnits="userSpaceOnUse" x1="347" x2="417" y1="271" y2="201"><stop offset=".015" stop-color="#fb9d8d"/><stop offset="1" stop-color="#fdcec6"/></linearGradient><linearGradient id="New_Gradient_Swatch_27" gradientUnits="userSpaceOnUse" x1="313.783" x2="494.285" y1="414.217" y2="233.715"><stop offset=".015" stop-color="#fdcec6"/><stop offset="1" stop-color="#fee7e2"/></linearGradient><linearGradient id="New_Gradient_Swatch_19" gradientUnits="userSpaceOnUse" x1="125.481" x2="370.687" y1="254.215" y2="9.009"><stop offset=".015" stop-color="#fb9d8d"/><stop offset="1" stop-color="#fee7e2"/></linearGradient><linearGradient id="New_Gradient_Swatch_27-2" x1="204" x2="292" xlink:href="#New_Gradient_Swatch_27" y1="204" y2="116"/><linearGradient id="New_Gradient_Swatch_27-3" x1="325.783" x2="506.285" xlink:href="#New_Gradient_Swatch_27" y1="426.217" y2="245.715"/><g id="_03-heart" data-name="03-heart"><g id="linear_color" data-name="linear color"><path d="m320 244 49 10 28 59 60-38-48-82-89-9z" fill="url(#New_Gradient_Swatch_9)"/><path d="m432 168-88-8v40l56 8 24 48-56 88s-11.729-12.662-40-48c-32-40-64-8-64-8l72 120v88h120v-96l32-144z" fill="url(#New_Gradient_Swatch_27)"/><path d="m248.084 50.118c-139.323-97.667-222.917 41.857-181.12 125.572 44.735 89.6 181.12 181.382 181.12 181.382s136.385-91.783 181.116-181.382c41.8-83.715-41.793-223.239-181.116-125.572z" fill="url(#New_Gradient_Swatch_19)"/><path d="m312 136h-40v-40h-48v40h-40v48h40v40h48v-40h40z" fill="url(#New_Gradient_Swatch_27-2)"/><path d="m456 496v-96l-88-56s-11.73-12.662-40-48c-32-40-64-8-64-8l72 120v88z" fill="url(#New_Gradient_Swatch_27-3)"/><path d="m498.124 249.557-52.438-82.4c16.5-48.611-.152-107.481-40.228-139.32-41.989-33.358-99.005-30.417-157.373 7.786-30.5-20.016-60.2-30.394-88.388-30.873-27.158-.447-52.187 8.494-72.385 25.9-20.139 17.35-34.449 42.263-40.292 70.15-5.883 28.077-2.615 56.577 9.2 80.251 45.628 91.378 179.481 182.155 185.156 185.974a12 12 0 0 0 13.4 0c.575-.387 12.193-8.226 29.736-21.509l39.488 65.808v84.676a12 12 0 0 0 24 0v-88a12 12 0 0 0 -1.71-6.174l-66.306-110.509a27.574 27.574 0 0 1 14.211-3.4c8.234.359 16.915 6.082 24.434 15.577 28.218 35.275 40.078 48.13 40.568 48.66a12 12 0 0 0 18.927-1.714l56-88a12 12 0 0 0 .609-11.807l-16.884-33.779a281.008 281.008 0 0 0 15.717-24.04l41.641 65.433-30.921 139.153a11.994 11.994 0 0 0 -.286 2.6v96a12 12 0 0 0 24 0v-94.683l31.714-142.717a12 12 0 0 0 -1.59-9.043zm-131.624 74.453c-5.3-6.244-12.762-15.2-22.626-27.418q11.663-10.509 22.18-20.821l13.3 28.033zm28.075-44.118-10.631-22.392q9.357-10 17.526-19.732l8.759 17.522zm-.305-71.523c-16.809 22.117-39.066 45.691-66.217 70.174-10.05-9.1-21.054-14.019-32.842-14.6-22.333-1.1-37.981 13.865-39.693 15.576a12 12 0 0 0 -1.8 14.659l18.383 30.638c-10.213 7.774-18.6 13.822-24.006 17.643-27.658-19.577-133.13-97.492-170.395-172.129-19.519-39.1-8.414-92.47 25.283-121.5 34.884-30.058 85.261-26 138.212 11.118a12 12 0 0 0 13.777 0c52.184-36.579 100.326-41.309 135.561-13.318 33.166 26.351 46.661 77.955 30.709 117.516-6.642 15.422-15.242 28.475-26.975 44.223z"/><path d="m312 124h-28v-28a12 12 0 0 0 -12-12h-48a12 12 0 0 0 -12 12v28h-28a12 12 0 0 0 -12 12v48a12 12 0 0 0 12 12h28v28a12 12 0 0 0 12 12h48a12 12 0 0 0 12-12v-28h28a12 12 0 0 0 12-12v-48a12 12 0 0 0 -12-12zm-12 48h-28a12 12 0 0 0 -12 12v28h-24v-28a12 12 0 0 0 -12-12h-28v-24h28a12 12 0 0 0 12-12v-28h24v28a12 12 0 0 0 12 12h28z"/></g></g></svg>